<?xml version="1.0" encoding="UTF-8"?>
<!DOCTYPE svg  PUBLIC '-//W3C//DTD SVG 1.1//EN'  'http://www.w3.org/Graphics/SVG/1.1/DTD/svg11.dtd'>
<svg enable-background="new 0 0 512 512" version="1.1" viewBox="0 0 512 512" xml:space="preserve" xmlns="http://www.w3.org/2000/svg"><g fill="#016FD0"><path d="m432.12 329.2v-3.595c-8.621 4.47-3.114 3.595-125.08 3.595 0-20.117 0.081-19.078 0-20.117-1.356-0.079-2.554-0.079-7.504-0.079 0 14.287-0.078 5.428-0.078 20.196h-31.608c0-9.66 0.08-12.213 0.08-23.31-7.982 4.79-18.199 5.109-27.379 4.949 0 11.732-0.08 6.626-0.08 18.36h-39.03c-4.071-4.553-2.156-2.478-12.292-13.891-2.556 2.794-10.218 11.097-12.852 13.891h-65.451v-73.675h66.329c3.991 4.471 2.235 2.475 12.371 13.728 2.555-2.792 9.738-10.696 12.533-13.728h46.295c7.821 0 14.368 1.518 19.396 4.471v-4.471c43.342 0 51.324-1.118 60.424 4.07v-4.07h62.419v4.15c9.099-5.508 15.644-4.15 51.802-4.15v3.991c8.222-4.71 13.249-4.15 43.343-3.991v-140c0-21.152-17.161-38.314-38.315-38.314h-383.13c-21.152 0-38.313 17.162-38.313 38.314v87.641c7.504-17.48 15.725-36.716 18.438-43.021h31.689c3.433 8.061 1.276 2.952 7.184 16.841v-16.841h36.717c2.314 4.947 8.86 19.155 11.095 23.945 4.629-10.856 8.063-19.078 10.058-23.945h82.213c0-0.081 9.18 0 9.26 0 34.88 0.158 42.782-0.64 51.402 4.229v-4.229h31.85v7.422c6.065-4.869 14.288-7.422 24.503-7.422h22.03c0 0.399 1.519 0.239 1.837 0.239h25.86c3.354 7.821 2.076 4.788 7.023 16.442v-16.442h34.563c3.911 6.385-0.798-1.437 8.938 14.686v-14.686h31.849v73.434h-33.204c-4.312-7.185-1.118-1.757-10.536-17.48v17.48h-42.146c-5.107-11.814-0.081-0.24-5.268-12.213h-15.167c-3.351 7.981-1.755 4.151-5.107 12.213h-21.393c-9.815 0-17.799-2.395-23.705-7.104v7.104h-53.079c-0.24-11.095-0.081-19.796-0.081-19.796-1.437-0.239-2.715-0.159-7.822-0.159v20.034h-108.15v-9.1c-1.996 4.47-2.155 4.71-4.071 9.1h-23.547c-3.193-7.104-2.314-5.108-4.07-9.1v9.1h-42.225c-3.353-8.062-1.756-4.23-5.108-12.212h-15.326c-3.352 7.981-1.755 4.15-5.108 12.212h-21.233v162.59c0 21.155 17.162 38.315 38.314 38.315h383.21c21.15 0 38.313-17.16 38.313-38.315v-72.154c-10.137 6.624-26.102 4.87-53.878 4.87z"/><rect x="293.24" y="170.75" width="13.489" height="55.313"/><path d="m285.65 185.6c0-13.09-11.254-14.685-21.87-14.685l-31.209-0.241v55.314h13.09v-20.034h14.368c14.687 0 11.573 8.222 11.813 20.034h13.251v-10.776c0-7.342-1.198-12.052-8.781-14.685 5.908-2.395 9.418-8.541 9.338-14.927zm-23.465 9.02h-16.523v-12.213h16.763c4.071 0 8.539 0.799 8.539 5.906-1e-3 5.269-4.232 6.307-8.779 6.307z"/><polygon points="223.47 182.41 223.47 170.75 179.18 170.75 179.18 226.07 223.47 226.07 223.47 214.65 192.42 214.65 192.42 203.64 222.6 203.64 222.6 192.38 192.42 192.38 192.42 182.41"/><path d="m169.36 226.07v-55.313h-22.031l-15.724 37.514-17.322-37.514h-21.63v52.439l-22.429-52.439h-19.556l-23.707 55.313h14.289l5.107-12.212h27.538l5.108 12.212h26.979v-43.262l19.156 43.262h11.654l19.156-43.262v43.262h13.412zm-118.29-23.706 8.94-22.03 9.18 22.03h-18.12z"/><path d="m248.86 266.06h-42.064l-16.763 18.197-16.363-18.197h-53.078l-0.081 55.313h52.203l17-18.357 16.283 18.357h25.702l0.079-18.596c15.086 0 39.352 3.67 39.352-18.598 0-13.81-9.818-18.119-22.27-18.119zm-82.852 43.66h-32.407v-11.015h28.975v-11.253h-28.975v-9.979h33.285l14.288 16.125-15.166 16.122zm52.52 6.546-20.193-22.429 20.193-21.871v44.3zm30.173-24.743h-16.923v-14.05h17.161c4.471 0 8.143 1.836 8.143 6.707 0 5.106-3.672 7.343-8.381 7.343z"/><path d="m313.19 198.85c0 17.719 8.141 27.138 26.339 27.138h15.328l5.105-12.212h27.379l5.267 12.212h26.901v-41.426l24.902 41.426h18.839v-55.073h-13.491v38.393l-23.228-38.393h-20.194v52.2l-22.268-52.2h-19.796l-18.758 43.5h-5.906c-10.617 0-12.851-6.466-12.851-15.884 0-18.997 12.531-15.964 26.419-15.725v-12.133h-12.852c-18.754 0-27.135 9.578-27.135 28.177zm60.743-18.519 8.938 22.03h-18.198l9.26-22.03z"/><path d="m415.6 309.48h-25.699l-0.081 11.813h25.703c11.813 0 20.912-4.47 20.912-17.559 0-26.501-34.241-8.94-34.241-20.995 0-4.468 3.91-5.106 7.342-5.106h24.266v-11.655h-26.5c-10.217 0-18.758 5.27-18.758 16.522 0 26.341 34.081 9.979 34.081 21.872-0.078 4.311-3.752 5.108-7.025 5.108z"/><path d="m330.59 280.98c0-13.091-11.254-14.927-21.63-14.927h-31.45l-0.078 55.313h13.25l0.077-20.192h14.05c8.78 0 11.813 1.597 11.813 11.015l-0.08 9.178h13.25l0.081-11.014c0-7.104-1.438-12.053-8.782-14.687 6.147-2.475 9.421-8.62 9.499-14.686zm-23.307 8.939h-16.524v-12.452h16.764c4.071 0 8.541 0.8 8.541 5.907-1e-3 5.508-4.31 6.545-8.781 6.545z"/><polygon points="381.92 277.47 381.92 266.06 337.85 266.06 337.78 321.37 381.84 321.37 381.92 309.96 351.1 309.72 351.1 298.7 381.36 298.7 381.36 287.45 351.18 287.45 351.18 277.47"/><path d="m461.1 277.71h24.025v-11.653h-26.262c-10.217 0-18.996 5.268-18.996 16.523 0 26.34 34.082 10.218 34.082 21.87 0 4.07-3.432 5.108-6.704 5.108h-25.542l-0.08 11.812h25.542c6.705 0 14.049-1.438 17.96-7.103v-20.595c-8.383-11.014-31.369-1.037-31.369-10.774 0-4.628 3.67-5.188 7.344-5.188z"/></g></svg>
