<?xml version="1.0" encoding="UTF-8"?>
<svg enable-background="new 0 0 156 128" version="1.1" viewBox="0 0 156 128" xml:space="preserve" xmlns="http://www.w3.org/2000/svg" xmlns:xlink="http://www.w3.org/1999/xlink"><style type="text/css">
	.st0{clip-path:url(#g);stroke:#000000;stroke-width:2;stroke-miterlimit:10;}
	.st1{clip-path:url(#e);fill:#FFFFFF;}
	.st2{clip-path:url(#c);fill:#FF5F00;}
	.st3{clip-path:url(#a);fill:#EB001B;}
	.st4{clip-path:url(#k);fill:#F79E1B;}
	.st5{clip-path:url(#i);fill:#F79E1B;}
</style><path d="M14,30c0-3.3,2.7-6,6-6h116c3.3,0,6,2.7,6,6v68c0,3.3-2.7,6-6,6H20c-3.3,0-6-2.7-6-6V30z"/><defs><path id="h" d="M14,30c0-3.3,2.7-6,6-6h116c3.3,0,6,2.7,6,6v68c0,3.3-2.7,6-6,6H20c-3.3,0-6-2.7-6-6V30z"/></defs><clipPath id="g"><use xlink:href="#h"/></clipPath><path class="st0" d="M14,30c0-3.3,2.7-6,6-6h116c3.3,0,6,2.7,6,6v68c0,3.3-2.7,6-6,6H20c-3.3,0-6-2.7-6-6V30z"/><defs><path id="f" d="m55.3 91.8v-3.8c0-1.4-0.8-2.3-2.3-2.4-0.8 0-1.5 0.2-2.1 1.1-0.4-0.7-1.1-1.1-2-1.1-0.6 0-1.3 0.2-1.8 0.9v-0.7h-1.2v6h1.2v-3.4c0-1 0.6-1.6 1.5-1.6s1.3 0.6 1.3 1.6v3.4h1.2v-3.4c0-1 0.6-1.6 1.5-1.6s1.4 0.6 1.4 1.6v3.4h1.3zm19.4-6h-2.2v-1.8h-1.2v1.8h-1.3v1.1h1.3v2.8c0 1.4 0.5 2.2 2 2.2 0.6 0 1.2-0.2 1.6-0.5l-0.4-1.1c-0.4 0.2-0.8 0.3-1.1 0.3-0.6 0-0.9-0.4-0.9-1v-2.8h2.2v-1zm11.1-0.1c-0.7 0-1.3 0.3-1.6 0.9v-0.7h-1.2v6h1.2v-3.4c0-1 0.5-1.6 1.3-1.6 0.3 0 0.5 0 0.8 0.2l0.4-1.1c-0.3-0.3-0.7-0.3-0.9-0.3zm-16.8 0.6c-0.6-0.4-1.5-0.6-2.4-0.6-1.5 0-2.4 0.7-2.4 1.9 0 1 0.7 1.6 2 1.7l0.6 0.1c0.7 0.1 1.1 0.3 1.1 0.7 0 0.5-0.5 0.8-1.4 0.8s-1.5-0.3-2-0.6l-0.6 0.9c0.9 0.6 1.9 0.8 2.6 0.8 1.7 0 2.7-0.8 2.7-1.9 0-1-0.7-1.6-2-1.8l-0.6-0.1c-0.6-0.1-1.1-0.2-1.1-0.6s0.5-0.7 1.2-0.7c0.8 0 1.5 0.3 1.9 0.5l0.4-1.1zm18.1 2.5c0 1.8 1.2 3.1 3.1 3.1 0.9 0 1.5-0.2 2.1-0.7l-0.6-0.9c-0.5 0.3-1 0.5-1.6 0.5-1 0-1.8-0.8-1.8-2s0.8-2 1.8-2c0.6 0 1.1 0.2 1.6 0.5l0.6-0.9c-0.6-0.5-1.2-0.7-2.1-0.7-1.9 0-3.1 1.3-3.1 3.1zm-8.4-3.1c-1.7 0-2.9 1.3-2.9 3.1 0 1.9 1.2 3.1 3 3.1 0.9 0 1.7-0.2 2.4-0.8l-0.6-0.9c-0.5 0.4-1.1 0.6-1.7 0.6-0.8 0-1.7-0.5-1.8-1.5h4.5v-0.5c-0.1-1.9-1.2-3.1-2.9-3.1zm0 1.1c0.9 0 1.5 0.6 1.6 1.5h-3.2c0.1-0.9 0.7-1.5 1.6-1.5zm-16.1 2v-3h-1.2v0.7c-0.4-0.5-1.1-0.9-1.9-0.9-1.7 0-2.9 1.3-2.9 3.1s1.3 3.1 2.9 3.1c0.8 0 1.5-0.3 1.9-0.9v0.7h1.2v-2.8zm-4.9 0c0-1.1 0.7-2 1.9-2 1.1 0 1.8 0.9 1.8 2 0 1.2-0.7 2-1.8 2s-1.9-0.9-1.9-2zm46.1-3.1c-0.7 0-1.3 0.3-1.6 0.9v-0.7h-1.2v6h1.2v-3.4c0-1 0.5-1.6 1.3-1.6 0.3 0 0.5 0 0.8 0.2l0.4-1.1c-0.3-0.3-0.7-0.3-0.9-0.3zm9.6 5.2h0.2c0.1 0 0.1 0.1 0.2 0.1 0.1 0.1 0.1 0.1 0.1 0.2s0 0.1 0 0.2 0 0.2 0 0.2c0 0.1-0.1 0.1-0.1 0.2-0.1 0.1-0.1 0.1-0.2 0.1s-0.2 0-0.2 0h-0.2c-0.1 0-0.1-0.1-0.2-0.1-0.1-0.1-0.1-0.1-0.1-0.2s0-0.1 0-0.2 0-0.2 0-0.2c0-0.1 0.1-0.1 0.1-0.2 0.1-0.1 0.1-0.1 0.2-0.1h0.2zm0 1.1h0.2s0.1-0.1 0.1-0.1l0.1-0.1v-0.2s0-0.1 0-0.2-0.1-0.1-0.1-0.1l-0.1-0.1h-0.2s-0.1 0-0.2 0-0.1 0.1-0.1 0.1l-0.1 0.1v0.2s0 0.1 0 0.2 0.1 0.1 0.1 0.1l0.1 0.1h0.2zm0-0.8h0.2l0.1 0.1v0.1s-0.1 0-0.1 0.1l0.2 0.2h-0.1l-0.2-0.2h-0.1v0.2h-0.1v-0.6h0.1v0.1zm-0.1 0.1 0.2 0.1v-0.1-0.1l-0.2 0.1zm-14.1-2.5v-3h-1.2v0.7c-0.4-0.5-1.1-0.9-1.9-0.9-1.7 0-2.9 1.3-2.9 3.1s1.3 3.1 2.9 3.1c0.8 0 1.5-0.3 1.9-0.9v0.7h1.2v-2.8zm-4.8 0c0-1.1 0.7-2 1.9-2 1.1 0 1.8 0.9 1.8 2 0 1.2-0.7 2-1.8 2-1.2 0-1.9-0.9-1.9-2zm16.8 0v-5.4h-1.2v3.1c-0.4-0.5-1.1-0.9-1.9-0.9-1.7 0-2.9 1.3-2.9 3.1s1.3 3.1 2.9 3.1c0.8 0 1.5-0.3 1.9-0.9v0.7h1.2v-2.8zm-4.8 0c0-1.1 0.7-2 1.9-2 1.1 0 1.8 0.9 1.8 2 0 1.2-0.7 2-1.8 2-1.2 0-1.9-0.9-1.9-2z"/></defs><clipPath id="e"><use xlink:href="#f"/></clipPath><rect class="st1" x="40.9" y="78.4" width="78.1" height="18.7"/><defs><rect id="d" x="67.6" y="40.5" width="21.6" height="35.3"/></defs><clipPath id="c"><use xlink:href="#d"/></clipPath><rect class="st2" x="62.6" y="35.5" width="31.6" height="45.3"/><defs><path id="b" d="m69.9 58.1c0-7.2 3.4-13.5 8.6-17.6-3.8-3-8.6-4.8-13.9-4.8-12.4 0-22.4 10-22.4 22.4s10 22.4 22.4 22.4c5.2 0 10-1.8 13.9-4.8-5.3-4.1-8.6-10.5-8.6-17.6"/></defs><clipPath id="a"><use xlink:href="#b"/></clipPath><rect class="st3" x="37.1" y="30.7" width="46.3" height="54.9"/><defs><path id="l" d="m112.6 72v-0.7h0.3v-0.1h-0.7v0.1h0.3l0.1 0.7zm1.4 0v-0.9h-0.2l-0.3 0.6-0.3-0.6h-0.2v0.9h0.2v-0.7l0.2 0.6h0.2l0.2-0.6v0.7h0.2z"/></defs><clipPath id="k"><use xlink:href="#l"/></clipPath><rect class="st4" x="107.1" y="66.1" width="11.9" height="10.9"/><defs><path id="j" d="m114.7 58.1c0 12.4-10 22.4-22.4 22.4-5.2 0-10-1.8-13.9-4.8 5.2-4.1 8.6-10.5 8.6-17.6 0-7.2-3.4-13.5-8.6-17.6 3.8-3 8.6-4.8 13.9-4.8 12.4 0 22.4 10 22.4 22.4"/></defs><clipPath id="i"><use xlink:href="#j"/></clipPath><rect class="st5" x="73.4" y="30.7" width="46.3" height="54.9"/></svg>
