<?xml version="1.0" encoding="UTF-8"?>
<svg version="1.1" viewBox="0 0 480 301" xmlns="http://www.w3.org/2000/svg">
<g fill="none" fill-rule="evenodd">
<path d="m444 3.0358e-6c-24 2.266e-6 -278.1-7.8476e-6 -420 0-12 6.6363e-7 -24 12.006-24 24.011 0 72.18 2.8991e-6 216.1 0 240.11-1.3885e-6 24.011 12 36.017 36 36.017 133.87 0 384 2e-6 408 0 24 0 36-12.006 36-36.017-2e-6 -24.011-6e-6 -148.35 0-228.11 0-24.011-12-36.017-36-36.017z" fill="#F4F4F4"/>
<g transform="translate(76 102)">
<path d="m0.95559 69.553c-0.32327-0.21261 1.8991-8.774 7.1979-27.729 4.2161-15.082 8.1811-29.19 8.8113-31.351l1.1458-3.9295 16.566 0.30245c19.366 0.35358 22.347 0.60947 25.462 2.1857 5.5229 2.7943 7.0433 7.0937 5.1401 14.535-1.621 6.338-4.7178 10.651-10.706 14.912-1.1356 0.80796-2.1277 1.7957-2.2046 2.1949-0.085346 0.44316 0.62235 1.4195 1.8168 2.5066 1.0761 0.97938 2.2201 2.2901 2.542 2.9127 0.86632 1.6753 0.7159 5.032-0.48621 10.85-0.58938 2.8523-1.1822 6.9286-1.3175 9.0585l-0.24586 3.8725h-8.0184c-5.6783 0-8.165-0.14661-8.5208-0.50238-0.78242-0.78242-0.60545-2.7783 0.75357-8.4986 1.5124-6.366 1.6039-8.8642 0.38168-10.418-1.6146-2.0526-3.0789-2.4965-8.8757-2.6903-4.6771-0.15638-5.4569-0.086073-6.1663 0.55591-1.103 0.99822-1.9984 3.5761-4.6141 13.285l-2.2276 8.2683-7.9835-0.006451c-4.3909-0.0032255-8.194-0.14483-8.4512-0.31399v4.84e-5zm42.147-35.52c3.8071-1.1306 5.4109-3.6136 5.4161-8.3853 0.0016934-1.4356-0.24143-2.4459-0.7303-3.0364-1.1556-1.3957-4.6363-1.8695-11.165-1.5199l-5.6754 0.30397-0.82645 2.7833c-1.2761 4.2977-2.1711 8.4531-2.0314 9.432 0.091402 0.6405 0.53369 0.96679 1.5918 1.1744 2.318 0.45472 10.994-0.031449 13.421-0.75201z" fill="#265797" opacity=".9375"/>
<path d="m69.954 70.781c-2.5356-0.90677-4.5291-2.5996-5.3667-4.5572-1.5922-3.7213-0.12822-11.992 5.6843-32.114 1.392-4.8188 2.5309-8.8086 2.5309-8.8664s0.29604-0.40101 0.65788-0.76284c0.537-0.537 1.7627-0.65788 6.6711-0.65788 3.3073 0 6.4815 0.17803 7.0539 0.39564l1.0406 0.39563-1.0382 3.6862c-2.5459 9.0391-5.1863 20.004-5.6428 23.432-0.41461 3.1141-0.39872 3.9419 0.0955 4.973 1.1243 2.3457 5.2056 2.8418 8.679 1.055 4.075-2.0963 4.8393-3.8905 11.39-26.736 0.96046-3.3497 1.693-5.0905 2.5106-5.9657l1.1545-1.2359h6.5435c5.0604 0 6.592 0.12627 6.7573 0.55712 0.16375 0.42673-8.1519 31.387-11.657 43.401l-0.54964 1.8839-6.9956 0.20932c-3.8476 0.11514-6.9952 0.091718-6.9949-0.052012 3.871e-4 -0.14375 0.28601-1.07 0.63473-2.0584 1.4147-4.0096-0.34914-4.2611-5.5013-0.78452-5.091 3.4353-7.2253 4.2492-11.633 4.4356-2.9798 0.12601-4.2856-0.011209-6.0248-0.63319v-8e-6z" fill="#265797" opacity=".9375"/>
<path d="m116.46 69.54c-0.37202-0.23644 1.7818-8.5451 8.1648-31.497l8.6701-31.176 14.652 0.12265c18.277 0.15299 22.014 0.47726 25.548 2.2169 2.9055 1.4304 4.2889 2.7095 5.5822 5.1618 2.1728 4.1198 2.1366 8.8983-0.11728 15.455-3.4642 10.079-9.9307 16.705-18.455 18.912-1.3815 0.35769-5.7145 0.84163-9.6289 1.0754-12.932 0.77231-12.154 0.62695-12.847 2.4018-0.33101 0.84824-1.6228 5.1688-2.8706 9.6012l-2.2687 8.059-7.9622-0.006451c-4.3792-0.0032255-8.1896-0.15094-8.4675-0.32758v4.84e-5zm37.701-33.555c4.2613-0.54915 6.5001-1.8636 7.922-4.6512 1.528-2.9955 1.9313-6.2564 0.95754-7.7426-1.327-2.0253-3.144-2.4678-9.9905-2.4329-3.4092 0.017337-6.3661 0.19999-6.571 0.40584-0.46876 0.47099-3.3484 11.854-3.3484 13.235 0 0.56321 0.12559 1.1496 0.2791 1.3031 0.39675 0.39675 7.3499 0.32061 10.751-0.11772z" fill="#265797" opacity=".9375"/>
<path d="m178.09 70.954c-4.9299-2.0651-6.2073-5.4778-4.6007-12.292 2.2458-9.5255 7.193-12.711 24.177-15.567 10.255-1.7246 12.815-2.985 13.552-6.6725 0.54559-2.7279-1.7924-4.2195-6.6212-4.2243-3.0146-0.0032256-4.1454 0.43656-6.7605 2.6277l-2.1076 1.7658-5.4297 0.13921c-6.2933 0.16135-8.2318-0.089097-8.2318-1.0635 0-1.1353 2.4682-4.6036 4.7757-6.7109 2.4782-2.2631 5.7578-3.9973 9.3088-4.9222 7.4582-1.9426 20.296-1.7168 24.708 0.43464 2.3615 1.1516 4.4606 3.0641 5.4602 4.975 0.94622 1.8088 0.60791 3.6856-3.8509 21.363-2.1885 8.6767-3.9791 16.516-3.9791 17.422v1.6456h-5.1747c-2.8461 0-6.0447 0.11925-7.108 0.265l-1.9334 0.26499-0.85041-1.9839c-0.99917-2.331-1.1163-2.3303-6.3807 0.037658-5.7174 2.5717-7.8125 3.1449-12.254 3.3527-3.7794 0.17682-4.4307 0.09354-6.6984-0.85633v-8e-6 -2.42e-5zm22.501-9.7818c2.8869-1.277 6.1478-6.5035 6.1669-9.884l0.009193-1.6305-2.6601 0.2484c-2.9426 0.27478-9.1667 2.2821-11.448 3.692-1.9262 1.1905-3.0545 3.1083-3.0485 5.1816 0.005645 1.9885 0.29834 2.5324 1.6784 3.1203 1.5758 0.67134 7.1196 0.23752 9.3021-0.7279z" fill="#265797" opacity=".9375"/>
<path d="m223.65 89.705c-1.6769-0.37816-1.7412-1.0042-0.5751-5.5977 1.5627-6.1559 1.46-6.0278 5.3165-6.6274 4.1627-0.64715 6.0214-1.5619 6.9497-3.4202 1.0282-2.0583 0.95444-10.141-0.29043-31.817-0.69275-12.063-0.86509-17.534-0.56373-17.897 0.3175-0.38283 2.4364-0.52331 7.8928-0.52331h7.4588l0.13028 14.004c0.088888 9.5541 0.27819 14.152 0.59572 14.469 0.76198 0.76104 3.5631-3.9759 15.043-25.438l1.6234-3.0352h6.5856c3.6221 0 6.6747 0.14421 6.7836 0.32047 0.20966 0.33924-9.7693 18.128-19.783 35.265-14.232 24.357-16.909 27.713-23.585 29.573-2.1798 0.60736-11.821 1.1217-13.582 0.72453z" fill="#265797" opacity=".9375"/>
<path d="m285.35 84.119 19.572-71.694 18.63 37.05-38.202 34.643z" fill="#479951"/>
<path d="m273.24 84.38 19.572-71.694 18.63 37.05-38.202 34.643z" fill="#D97B16"/>
<path d="m327.17 11.084v-4.8863h-1.8588v-0.85194h4.6892v0.85194h-1.8729v4.8863h-0.95755zm3.4711 0v-5.7383h1.4082l1.4504 4.5836 1.4011-4.5836h1.38v5.7383h-0.87306v-4.8159l-1.4786 4.8159h-0.86602l-1.5419-4.8863v4.8863h-0.8801z" fill="#000"/>
<path d="m339.16 8.1099c0 4.3976-3.5649 7.9625-7.9625 7.9625-4.3976 0-7.9625-3.5649-7.9625-7.9625 0-4.3976 3.5649-7.9625 7.9625-7.9625 4.3976 0 7.9625 3.5649 7.9625 7.9625z" opacity=".9375" stroke="#000" stroke-width=".5"/>
</g>
</g>
</svg>
