<?xml version="1.0" encoding="UTF-8"?>
<svg width="56.7px" height="56.7px" enable-background="new -822 823.1 56.7 56.7" version="1.1" viewBox="-822 823.1 56.7 56.7" xml:space="preserve" xmlns="http://www.w3.org/2000/svg"><polygon points="-797.8 845.3 -801.1 860.5 -797.1 860.5 -793.9 845.3"/><path d="m-803.6 845.3-4.1 10.3-1.7-8.8c-0.2-1-1-1.5-1.8-1.5h-6.7l-0.1 0.4c1.4 0.3 2.9 0.8 3.9 1.3 0.6 0.3 0.7 0.6 0.9 1.3l3.1 12.1h4.2l6.4-15.2h-4.1z"/><path d="m-772.5 845.3h-3.4c-0.8 0-1.4 0.4-1.7 1.1l-5.9 14.1h4.1l0.8-2.3h5l0.5 2.3h3.6l-3-15.2zm-4.8 9.8 2.1-5.7 1.2 5.7h-3.3z"/><path d="m-788.7 849.5c0-0.5 0.5-1.1 1.7-1.3 0.6-0.1 2.1-0.1 3.9 0.7l0.7-3.2c-0.9-0.3-2.2-0.7-3.7-0.7-3.9 0-6.6 2.1-6.6 5 0 2.2 2 3.4 3.4 4.1 1.5 0.7 2 1.2 2 1.9 0 1-1.2 1.5-2.4 1.5-2 0-3.1-0.5-4-1l-0.7 3.3c0.9 0.4 2.6 0.8 4.4 0.8 4.1 0 6.8-2 6.8-5.2 0-3.8-5.6-4.1-5.5-5.9z"/></svg>
